<svg xmlns="http://www.w3.org/2000/svg" xmlns:xlink="http://www.w3.org/1999/xlink" width="500" zoomAndPan="magnify" viewBox="0 0 375 374.999991" height="500" preserveAspectRatio="xMidYMid meet" version="1.0"><defs><clipPath id="e73ed82a44"><path d="M 72.378906 188 L 292.429688 188 L 292.429688 256.179688 L 72.378906 256.179688 Z M 72.378906 188 " clip-rule="nonzero"/></clipPath><clipPath id="9bbee73d36"><path d="M 73 108 L 309.300781 108 L 309.300781 244.171875 L 73 244.171875 Z M 73 108 " clip-rule="nonzero"/></clipPath><clipPath id="fb578e77a3"><path d="M 216 5.179688 L 255 5.179688 L 255 203 L 216 203 Z M 216 5.179688 " clip-rule="nonzero"/></clipPath><clipPath id="57006f72c8"><path d="M 108 20 L 200 20 L 200 96 L 108 96 Z M 108 20 " clip-rule="nonzero"/></clipPath><clipPath id="5a55dc06c2"><path d="M 71.726562 0 L 199.097656 20.425781 L 178.671875 147.800781 L 51.300781 127.375 Z M 71.726562 0 " clip-rule="nonzero"/></clipPath><clipPath id="6b12771c0e"><path d="M 71.726562 0 L 199.097656 20.425781 L 178.671875 147.800781 L 51.300781 127.375 Z M 71.726562 0 " clip-rule="nonzero"/></clipPath><clipPath id="f3b6de303a"><path d="M 51 67 L 131 67 L 131 128 L 51 128 Z M 51 67 " clip-rule="nonzero"/></clipPath><clipPath id="c0006553da"><path d="M 71.726562 0 L 199.097656 20.425781 L 178.671875 147.800781 L 51.300781 127.375 Z M 71.726562 0 " clip-rule="nonzero"/></clipPath><clipPath id="ac4891be8a"><path d="M 71.726562 0 L 199.097656 20.425781 L 178.671875 147.800781 L 51.300781 127.375 Z M 71.726562 0 " clip-rule="nonzero"/></clipPath><clipPath id="1307fd5674"><path d="M 123 61 L 138 61 L 138 79 L 123 79 Z M 123 61 " clip-rule="nonzero"/></clipPath><clipPath id="95c52b4533"><path d="M 71.726562 0 L 199.097656 20.425781 L 178.671875 147.800781 L 51.300781 127.375 Z M 71.726562 0 " clip-rule="nonzero"/></clipPath><clipPath id="ae1ca89111"><path d="M 71.726562 0 L 199.097656 20.425781 L 178.671875 147.800781 L 51.300781 127.375 Z M 71.726562 0 " clip-rule="nonzero"/></clipPath></defs><g clip-path="url(#e73ed82a44)"><path fill="#1a3c8d" d="M 292.179688 188.160156 C 270.976562 211.527344 232.3125 245.78125 184.777344 250.265625 C 111.753906 257.15625 72.378906 188.996094 72.378906 188.996094 C 72.378906 188.996094 108.121094 259.128906 181.40625 256.082031 C 229.113281 254.097656 269.519531 221.921875 291.921875 199.699219 L 292.179688 188.160156 " fill-opacity="1" fill-rule="nonzero"/></g><g clip-path="url(#9bbee73d36)"><path fill="#1a3c8d" d="M 304.753906 159.8125 L 298.226562 108.046875 C 298.226562 108.046875 290.492188 129.183594 274.40625 153.554688 L 274.402344 153.554688 C 257.773438 178.753906 232.222656 207.410156 197.039062 219.757812 C 127.828125 244.042969 73.1875 187.378906 73.1875 187.378906 C 73.1875 187.378906 115.871094 253.519531 188.46875 243.039062 C 235.726562 236.21875 272.652344 200.101562 292.679688 175.722656 L 309.300781 195.875 L 304.753906 159.8125 " fill-opacity="1" fill-rule="nonzero"/></g><path fill="#0c76bd" d="M 156.160156 129.902344 L 118.113281 151.578125 L 118.113281 213.308594 C 129.363281 217.328125 142.234375 220.238281 156.160156 220.4375 L 156.160156 129.902344 " fill-opacity="1" fill-rule="nonzero"/><path fill="#ef5c21" d="M 204.730469 209.335938 L 204.730469 67.394531 L 166.683594 92.578125 L 166.683594 220.054688 C 176.996094 219.164062 187.769531 216.699219 198.804688 212.042969 C 200.816406 211.195312 202.789062 210.285156 204.730469 209.335938 " fill-opacity="1" fill-rule="nonzero"/><g clip-path="url(#fb578e77a3)"><path fill="#0c76bd" d="M 254.109375 167.726562 L 254.109375 5.199219 L 216.0625 27.953125 L 216.0625 202.964844 C 231.160156 193.394531 243.765625 180.867188 254.109375 167.726562 " fill-opacity="1" fill-rule="nonzero"/></g><g clip-path="url(#57006f72c8)"><g clip-path="url(#5a55dc06c2)"><g clip-path="url(#6b12771c0e)"><path fill="#1ca5e9" d="M 166.882812 48.691406 C 165.070312 50.003906 162.535156 49.597656 161.222656 47.785156 C 159.90625 45.96875 160.316406 43.433594 162.128906 42.121094 C 163.941406 40.808594 166.476562 41.214844 167.792969 43.03125 C 169.105469 44.84375 168.699219 47.378906 166.882812 48.691406 Z M 199.039062 20.417969 C 199.03125 20.421875 164.152344 32.613281 152.675781 40.917969 C 150.640625 42.390625 146.640625 45.46875 142.3125 48.945312 C 125.964844 36.039062 108.949219 55.175781 108.949219 55.175781 C 120.898438 46.53125 128.925781 55.230469 131.199219 58.253906 C 130.867188 58.546875 130.546875 58.839844 130.234375 59.121094 L 135.496094 66.398438 L 140.761719 73.671875 C 141.128906 73.464844 141.503906 73.25 141.890625 73.027344 C 144.050781 76.132812 149.800781 86.476562 137.855469 95.125 C 137.855469 95.125 161.351562 84.945312 154.207031 65.382812 C 158.859375 62.359375 163.035156 59.519531 165.074219 58.046875 C 176.546875 49.746094 199.035156 20.425781 199.039062 20.417969 " fill-opacity="1" fill-rule="nonzero"/></g></g></g><g clip-path="url(#f3b6de303a)"><g clip-path="url(#c0006553da)"><g clip-path="url(#ac4891be8a)"><path fill="#ef5c21" d="M 113.453125 71.542969 C 103.945312 78.421875 51.308594 127.316406 51.308594 127.316406 C 51.308594 127.316406 114.210938 92.605469 123.71875 85.730469 C 126.203125 83.929688 128.410156 82 130.261719 80.066406 L 120.878906 67.097656 C 118.460938 68.25 115.9375 69.742188 113.453125 71.542969 " fill-opacity="1" fill-rule="nonzero"/></g></g></g><g clip-path="url(#1307fd5674)"><g clip-path="url(#95c52b4533)"><g clip-path="url(#ae1ca89111)"><path fill="#1ca5e9" d="M 126.75 61.644531 C 126.085938 62.273438 124.117188 64.125 123.617188 64.648438 L 133.445312 78.226562 C 134.097656 77.917969 136.472656 76.628906 137.277344 76.191406 L 132.015625 68.917969 L 126.75 61.644531 " fill-opacity="1" fill-rule="nonzero"/></g></g></g></svg>