<svg xmlns="http://www.w3.org/2000/svg" xmlns:xlink="http://www.w3.org/1999/xlink" width="500" zoomAndPan="magnify" viewBox="0 0 375 374.999991" height="500" preserveAspectRatio="xMidYMid meet" version="1.0"><defs><g/></defs><g fill="#1a3c8d" fill-opacity="1"><g transform="translate(0.0589794, 118.895764)"><g><path d="M 7.796875 0 L 7.796875 -76.828125 L 40.28125 -76.828125 C 57.695312 -76.828125 66.40625 -69.878906 66.40625 -55.984375 C 66.40625 -52.316406 65.742188 -49.113281 64.421875 -46.375 C 63.109375 -43.632812 61.0625 -41.421875 58.28125 -39.734375 C 61.863281 -38.117188 64.441406 -35.789062 66.015625 -32.75 C 67.597656 -29.71875 68.425781 -26.082031 68.5 -21.84375 C 68.570312 -7.28125 59.566406 0 41.484375 0 Z M 26.34375 -45.765625 L 39.078125 -45.765625 C 42.078125 -45.765625 44.34375 -46.40625 45.875 -47.6875 C 47.414062 -48.96875 48.1875 -51.070312 48.1875 -54 C 48.1875 -57 47.414062 -59.140625 45.875 -60.421875 C 44.34375 -61.703125 42.078125 -62.34375 39.078125 -62.34375 L 26.34375 -62.34375 Z M 26.34375 -14.484375 L 39.953125 -14.484375 C 43.242188 -14.484375 45.726562 -15.160156 47.40625 -16.515625 C 49.09375 -17.867188 49.9375 -20.117188 49.9375 -23.265625 C 49.9375 -26.191406 49.09375 -28.332031 47.40625 -29.6875 C 45.726562 -31.039062 43.242188 -31.71875 39.953125 -31.71875 L 26.34375 -31.71875 Z M 26.34375 -14.484375 "/></g></g></g><g fill="#1a3c8d" fill-opacity="1"><g transform="translate(70.09185, 118.895764)"><g><path d="M 70.90625 0 L 50.609375 0 L 36.65625 -27.546875 L 26.34375 -27.546875 L 26.34375 0 L 7.796875 0 L 7.796875 -76.828125 L 39.40625 -76.828125 C 49.132812 -76.828125 56.335938 -74.6875 61.015625 -70.40625 C 65.703125 -66.132812 68.046875 -59.972656 68.046875 -51.921875 C 68.046875 -41.015625 63.582031 -33.769531 54.65625 -30.1875 Z M 26.34375 -61.578125 L 26.34375 -42.375 L 38.640625 -42.375 C 45.878906 -42.375 49.5 -45.554688 49.5 -51.921875 C 49.5 -58.359375 45.878906 -61.578125 38.640625 -61.578125 Z M 26.34375 -61.578125 "/></g></g></g><g fill="#1a3c8d" fill-opacity="1"><g transform="translate(140.783339, 118.895764)"><g><path d="M 7.796875 0 L 7.796875 -76.828125 L 26.5625 -76.828125 L 26.5625 0 Z M 7.796875 0 "/></g></g></g><g fill="#1a3c8d" fill-opacity="1"><g transform="translate(172.396851, 118.895764)"><g><path d="M 39.515625 1.75 C 27.660156 1.75 18.820312 -1.554688 13 -8.171875 C 7.1875 -14.796875 4.28125 -24.878906 4.28125 -38.421875 C 4.28125 -51.953125 7.1875 -62.03125 13 -68.65625 C 18.820312 -75.28125 27.660156 -78.59375 39.515625 -78.59375 C 43.984375 -78.59375 48.082031 -78.148438 51.8125 -77.265625 C 55.539062 -76.390625 58.320312 -75.550781 60.15625 -74.75 L 61.03125 -58.28125 C 59.269531 -59.164062 56.5625 -60.097656 52.90625 -61.078125 C 49.25 -62.066406 45.40625 -62.5625 41.375 -62.5625 C 35.007812 -62.5625 30.398438 -60.734375 27.546875 -57.078125 C 24.691406 -53.421875 23.265625 -47.203125 23.265625 -38.421875 C 23.265625 -29.566406 24.617188 -23.328125 27.328125 -19.703125 C 30.035156 -16.078125 34.316406 -14.265625 40.171875 -14.265625 C 42.148438 -14.265625 44.015625 -14.445312 45.765625 -14.8125 L 45.765625 -41.828125 L 63.21875 -41.828125 L 63.21875 -2.640625 C 62.5625 -2.421875 61.117188 -1.941406 58.890625 -1.203125 C 56.660156 -0.472656 53.859375 0.195312 50.484375 0.8125 C 47.117188 1.4375 43.460938 1.75 39.515625 1.75 Z M 39.515625 1.75 "/></g></g></g><g fill="#1a3c8d" fill-opacity="1"><g transform="translate(238.36826, 118.895764)"><g><path d="M 49.609375 -76.828125 L 68.28125 -76.828125 L 68.28125 0 L 49.609375 0 L 49.609375 -30.734375 L 26.453125 -30.734375 L 26.453125 0 L 7.796875 0 L 7.796875 -76.828125 L 26.453125 -76.828125 L 26.453125 -46.765625 L 49.609375 -46.765625 Z M 49.609375 -76.828125 "/></g></g></g><g fill="#1a3c8d" fill-opacity="1"><g transform="translate(311.694213, 118.895764)"><g><path d="M 61.25 -76.828125 L 61.25 -60.484375 L 40.9375 -60.484375 L 40.9375 0 L 22.28125 0 L 22.28125 -60.484375 L 1.96875 -60.484375 L 1.96875 -76.828125 Z M 61.25 -76.828125 "/></g></g></g><g fill="#1a3c8d" fill-opacity="1"><g transform="translate(52.169799, 233.973033)"><g><path d="M 7.84375 0 L 7.84375 -77.3125 L 39.875 -77.3125 C 49.519531 -77.3125 56.695312 -75.046875 61.40625 -70.515625 C 66.125 -65.992188 68.484375 -59.679688 68.484375 -51.578125 C 68.484375 -43.554688 66.125 -37.28125 61.40625 -32.75 C 56.695312 -28.21875 49.519531 -25.953125 39.875 -25.953125 L 26.390625 -25.953125 L 26.390625 0 Z M 26.390625 -41.3125 L 39.09375 -41.3125 C 42.707031 -41.3125 45.394531 -42.210938 47.15625 -44.015625 C 48.925781 -45.816406 49.8125 -48.335938 49.8125 -51.578125 C 49.8125 -54.816406 48.925781 -57.359375 47.15625 -59.203125 C 45.394531 -61.046875 42.707031 -61.96875 39.09375 -61.96875 L 26.390625 -61.96875 Z M 26.390625 -41.3125 "/></g></g></g><g fill="#1a3c8d" fill-opacity="1"><g transform="translate(120.537634, 233.973033)"><g><path d="M 55.453125 0 L 50.703125 -15.015625 L 23.96875 -15.015625 L 19.109375 0 L -0.109375 0 L 28.28125 -77.3125 L 46.71875 -77.3125 L 75.109375 0 Z M 28.5 -29.484375 L 46.0625 -29.484375 L 37.21875 -56.890625 Z M 28.5 -29.484375 "/></g></g></g><g fill="#1a3c8d" fill-opacity="1"><g transform="translate(192.881639, 233.973033)"><g><path d="M 61.640625 -77.3125 L 61.640625 -60.859375 L 41.203125 -60.859375 L 41.203125 0 L 22.421875 0 L 22.421875 -60.859375 L 1.984375 -60.859375 L 1.984375 -77.3125 Z M 61.640625 -77.3125 "/></g></g></g><g fill="#1a3c8d" fill-opacity="1"><g transform="translate(253.738923, 233.973033)"><g><path d="M 49.921875 -77.3125 L 68.703125 -77.3125 L 68.703125 0 L 49.921875 0 L 49.921875 -30.921875 L 26.625 -30.921875 L 26.625 0 L 7.84375 0 L 7.84375 -77.3125 L 26.625 -77.3125 L 26.625 -47.046875 L 49.921875 -47.046875 Z M 49.921875 -77.3125 "/></g></g></g></svg>