<svg xmlns="http://www.w3.org/2000/svg" xmlns:xlink="http://www.w3.org/1999/xlink" width="500" zoomAndPan="magnify" viewBox="0 0 375 374.999991" height="500" preserveAspectRatio="xMidYMid meet" version="1.0"><defs><g/></defs><g fill="#cd430c" fill-opacity="1"><g transform="translate(37.299643, 98.099936)"><g><path d="M 10.71875 -26.703125 L 0.1875 -26.703125 L 0.1875 -32.90625 L 28.859375 -32.90625 L 28.859375 -26.703125 L 18.328125 -26.703125 L 18.328125 0 L 10.71875 0 Z M 10.71875 -26.703125 "/></g></g></g><g fill="#cd430c" fill-opacity="1"><g transform="translate(78.372761, 98.099936)"><g><path d="M 18.515625 0.5625 C 13.816406 0.5625 10.160156 -0.734375 7.546875 -3.328125 C 4.929688 -5.929688 3.625 -9.644531 3.625 -14.46875 L 3.625 -32.90625 L 11.234375 -32.90625 L 11.234375 -14.765625 C 11.234375 -8.867188 13.675781 -5.921875 18.5625 -5.921875 C 20.945312 -5.921875 22.765625 -6.632812 24.015625 -8.0625 C 25.265625 -9.488281 25.890625 -11.722656 25.890625 -14.765625 L 25.890625 -32.90625 L 33.421875 -32.90625 L 33.421875 -14.46875 C 33.421875 -9.644531 32.109375 -5.929688 29.484375 -3.328125 C 26.867188 -0.734375 23.210938 0.5625 18.515625 0.5625 Z M 18.515625 0.5625 "/></g></g></g><g fill="#cd430c" fill-opacity="1"><g transform="translate(127.43454, 98.099936)"><g><path d="M 24.859375 0 L 18.515625 -9.171875 L 11.515625 -9.171875 L 11.515625 0 L 3.90625 0 L 3.90625 -32.90625 L 18.140625 -32.90625 C 21.054688 -32.90625 23.585938 -32.414062 25.734375 -31.4375 C 27.878906 -30.46875 29.53125 -29.085938 30.6875 -27.296875 C 31.851562 -25.515625 32.4375 -23.40625 32.4375 -20.96875 C 32.4375 -18.519531 31.847656 -16.410156 30.671875 -14.640625 C 29.492188 -12.867188 27.820312 -11.515625 25.65625 -10.578125 L 33.046875 0 Z M 24.71875 -20.96875 C 24.71875 -22.8125 24.125 -24.226562 22.9375 -25.21875 C 21.75 -26.207031 20.007812 -26.703125 17.71875 -26.703125 L 11.515625 -26.703125 L 11.515625 -15.234375 L 17.71875 -15.234375 C 20.007812 -15.234375 21.75 -15.734375 22.9375 -16.734375 C 24.125 -17.734375 24.71875 -19.144531 24.71875 -20.96875 Z M 24.71875 -20.96875 "/></g></g></g><g fill="#cd430c" fill-opacity="1"><g transform="translate(174.005731, 98.099936)"><g><path d="M 34.078125 -32.90625 L 34.078125 0 L 27.828125 0 L 11.421875 -19.96875 L 11.421875 0 L 3.90625 0 L 3.90625 -32.90625 L 10.203125 -32.90625 L 26.5625 -12.921875 L 26.5625 -32.90625 Z M 34.078125 -32.90625 "/></g></g></g><g fill="#cd430c" fill-opacity="1"><g transform="translate(224.007345, 98.099936)"><g><path d="M 3.90625 -32.90625 L 11.515625 -32.90625 L 11.515625 0 L 3.90625 0 Z M 3.90625 -32.90625 "/></g></g></g><g fill="#cd430c" fill-opacity="1"><g transform="translate(251.452736, 98.099936)"><g><path d="M 34.078125 -32.90625 L 34.078125 0 L 27.828125 0 L 11.421875 -19.96875 L 11.421875 0 L 3.90625 0 L 3.90625 -32.90625 L 10.203125 -32.90625 L 26.5625 -12.921875 L 26.5625 -32.90625 Z M 34.078125 -32.90625 "/></g></g></g><g fill="#cd430c" fill-opacity="1"><g transform="translate(301.45435, 98.099936)"><g><path d="M 26.125 -16.96875 L 33.09375 -16.96875 L 33.09375 -3.625 C 31.300781 -2.269531 29.226562 -1.234375 26.875 -0.515625 C 24.53125 0.203125 22.164062 0.5625 19.78125 0.5625 C 16.363281 0.5625 13.289062 -0.164062 10.5625 -1.625 C 7.84375 -3.082031 5.707031 -5.101562 4.15625 -7.6875 C 2.601562 -10.269531 1.828125 -13.191406 1.828125 -16.453125 C 1.828125 -19.710938 2.601562 -22.632812 4.15625 -25.21875 C 5.707031 -27.800781 7.863281 -29.820312 10.625 -31.28125 C 13.382812 -32.738281 16.484375 -33.46875 19.921875 -33.46875 C 22.804688 -33.46875 25.421875 -32.976562 27.765625 -32 C 30.117188 -31.03125 32.097656 -29.625 33.703125 -27.78125 L 28.8125 -23.265625 C 26.457031 -25.742188 23.617188 -26.984375 20.296875 -26.984375 C 18.203125 -26.984375 16.335938 -26.539062 14.703125 -25.65625 C 13.078125 -24.78125 11.8125 -23.539062 10.90625 -21.9375 C 10 -20.34375 9.546875 -18.515625 9.546875 -16.453125 C 9.546875 -14.410156 10 -12.585938 10.90625 -10.984375 C 11.8125 -9.390625 13.070312 -8.144531 14.6875 -7.25 C 16.300781 -6.363281 18.140625 -5.921875 20.203125 -5.921875 C 22.398438 -5.921875 24.375 -6.390625 26.125 -7.328125 Z M 26.125 -16.96875 "/></g></g></g><g fill="#cd430c" fill-opacity="1"><g transform="translate(47.465214, 176.449911)"><g><path d="M 35.53125 -32.90625 L 21.296875 0 L 13.765625 0 L -0.421875 -32.90625 L 7.796875 -32.90625 L 17.8125 -9.40625 L 27.96875 -32.90625 Z M 35.53125 -32.90625 "/></g></g></g><g fill="#cd430c" fill-opacity="1"><g transform="translate(94.553323, 176.449911)"><g><path d="M 3.90625 -32.90625 L 11.515625 -32.90625 L 11.515625 0 L 3.90625 0 Z M 3.90625 -32.90625 "/></g></g></g><g fill="#cd430c" fill-opacity="1"><g transform="translate(121.998725, 176.449911)"><g><path d="M 14.71875 0.5625 C 12.113281 0.5625 9.597656 0.210938 7.171875 -0.484375 C 4.742188 -1.191406 2.789062 -2.113281 1.3125 -3.25 L 3.90625 -8.984375 C 5.3125 -7.941406 6.984375 -7.109375 8.921875 -6.484375 C 10.867188 -5.859375 12.816406 -5.546875 14.765625 -5.546875 C 16.921875 -5.546875 18.515625 -5.863281 19.546875 -6.5 C 20.585938 -7.144531 21.109375 -8.003906 21.109375 -9.078125 C 21.109375 -9.859375 20.800781 -10.503906 20.1875 -11.015625 C 19.570312 -11.535156 18.785156 -11.953125 17.828125 -12.265625 C 16.878906 -12.578125 15.585938 -12.921875 13.953125 -13.296875 C 11.453125 -13.890625 9.398438 -14.484375 7.796875 -15.078125 C 6.203125 -15.679688 4.832031 -16.640625 3.6875 -17.953125 C 2.539062 -19.265625 1.96875 -21.019531 1.96875 -23.21875 C 1.96875 -25.125 2.484375 -26.851562 3.515625 -28.40625 C 4.554688 -29.957031 6.117188 -31.1875 8.203125 -32.09375 C 10.285156 -33.007812 12.832031 -33.46875 15.84375 -33.46875 C 17.9375 -33.46875 19.984375 -33.210938 21.984375 -32.703125 C 23.992188 -32.203125 25.753906 -31.484375 27.265625 -30.546875 L 24.90625 -24.765625 C 21.863281 -26.492188 18.828125 -27.359375 15.796875 -27.359375 C 13.660156 -27.359375 12.082031 -27.007812 11.0625 -26.3125 C 10.050781 -25.625 9.546875 -24.71875 9.546875 -23.59375 C 9.546875 -22.46875 10.128906 -21.628906 11.296875 -21.078125 C 12.472656 -20.523438 14.269531 -19.984375 16.6875 -19.453125 C 19.1875 -18.859375 21.234375 -18.265625 22.828125 -17.671875 C 24.429688 -17.078125 25.804688 -16.132812 26.953125 -14.84375 C 28.097656 -13.5625 28.671875 -11.828125 28.671875 -9.640625 C 28.671875 -7.753906 28.144531 -6.035156 27.09375 -4.484375 C 26.039062 -2.929688 24.460938 -1.703125 22.359375 -0.796875 C 20.265625 0.109375 17.71875 0.5625 14.71875 0.5625 Z M 14.71875 0.5625 "/></g></g></g><g fill="#cd430c" fill-opacity="1"><g transform="translate(164.011688, 176.449911)"><g><path d="M 3.90625 -32.90625 L 11.515625 -32.90625 L 11.515625 0 L 3.90625 0 Z M 3.90625 -32.90625 "/></g></g></g><g fill="#cd430c" fill-opacity="1"><g transform="translate(191.45709, 176.449911)"><g><path d="M 19.828125 0.5625 C 16.421875 0.5625 13.34375 -0.171875 10.59375 -1.640625 C 7.851562 -3.117188 5.707031 -5.148438 4.15625 -7.734375 C 2.601562 -10.316406 1.828125 -13.222656 1.828125 -16.453125 C 1.828125 -19.679688 2.601562 -22.585938 4.15625 -25.171875 C 5.707031 -27.753906 7.851562 -29.78125 10.59375 -31.25 C 13.34375 -32.726562 16.421875 -33.46875 19.828125 -33.46875 C 23.242188 -33.46875 26.316406 -32.726562 29.046875 -31.25 C 31.773438 -29.78125 33.921875 -27.753906 35.484375 -25.171875 C 37.046875 -22.585938 37.828125 -19.679688 37.828125 -16.453125 C 37.828125 -13.222656 37.046875 -10.316406 35.484375 -7.734375 C 33.921875 -5.148438 31.773438 -3.117188 29.046875 -1.640625 C 26.316406 -0.171875 23.242188 0.5625 19.828125 0.5625 Z M 19.828125 -5.921875 C 21.773438 -5.921875 23.53125 -6.363281 25.09375 -7.25 C 26.664062 -8.144531 27.894531 -9.390625 28.78125 -10.984375 C 29.675781 -12.585938 30.125 -14.410156 30.125 -16.453125 C 30.125 -18.484375 29.675781 -20.296875 28.78125 -21.890625 C 27.894531 -23.492188 26.664062 -24.742188 25.09375 -25.640625 C 23.53125 -26.535156 21.773438 -26.984375 19.828125 -26.984375 C 17.890625 -26.984375 16.132812 -26.535156 14.5625 -25.640625 C 13 -24.742188 11.769531 -23.492188 10.875 -21.890625 C 9.988281 -20.296875 9.546875 -18.484375 9.546875 -16.453125 C 9.546875 -14.410156 9.988281 -12.585938 10.875 -10.984375 C 11.769531 -9.390625 13 -8.144531 14.5625 -7.25 C 16.132812 -6.363281 17.890625 -5.921875 19.828125 -5.921875 Z M 19.828125 -5.921875 "/></g></g></g><g fill="#cd430c" fill-opacity="1"><g transform="translate(243.150427, 176.449911)"><g><path d="M 34.078125 -32.90625 L 34.078125 0 L 27.828125 0 L 11.421875 -19.96875 L 11.421875 0 L 3.90625 0 L 3.90625 -32.90625 L 10.203125 -32.90625 L 26.5625 -12.921875 L 26.5625 -32.90625 Z M 34.078125 -32.90625 "/></g></g></g><g fill="#cd430c" fill-opacity="1"><g transform="translate(293.152041, 176.449911)"><g><path d="M 14.71875 0.5625 C 12.113281 0.5625 9.597656 0.210938 7.171875 -0.484375 C 4.742188 -1.191406 2.789062 -2.113281 1.3125 -3.25 L 3.90625 -8.984375 C 5.3125 -7.941406 6.984375 -7.109375 8.921875 -6.484375 C 10.867188 -5.859375 12.816406 -5.546875 14.765625 -5.546875 C 16.921875 -5.546875 18.515625 -5.863281 19.546875 -6.5 C 20.585938 -7.144531 21.109375 -8.003906 21.109375 -9.078125 C 21.109375 -9.859375 20.800781 -10.503906 20.1875 -11.015625 C 19.570312 -11.535156 18.785156 -11.953125 17.828125 -12.265625 C 16.878906 -12.578125 15.585938 -12.921875 13.953125 -13.296875 C 11.453125 -13.890625 9.398438 -14.484375 7.796875 -15.078125 C 6.203125 -15.679688 4.832031 -16.640625 3.6875 -17.953125 C 2.539062 -19.265625 1.96875 -21.019531 1.96875 -23.21875 C 1.96875 -25.125 2.484375 -26.851562 3.515625 -28.40625 C 4.554688 -29.957031 6.117188 -31.1875 8.203125 -32.09375 C 10.285156 -33.007812 12.832031 -33.46875 15.84375 -33.46875 C 17.9375 -33.46875 19.984375 -33.210938 21.984375 -32.703125 C 23.992188 -32.203125 25.753906 -31.484375 27.265625 -30.546875 L 24.90625 -24.765625 C 21.863281 -26.492188 18.828125 -27.359375 15.796875 -27.359375 C 13.660156 -27.359375 12.082031 -27.007812 11.0625 -26.3125 C 10.050781 -25.625 9.546875 -24.71875 9.546875 -23.59375 C 9.546875 -22.46875 10.128906 -21.628906 11.296875 -21.078125 C 12.472656 -20.523438 14.269531 -19.984375 16.6875 -19.453125 C 19.1875 -18.859375 21.234375 -18.265625 22.828125 -17.671875 C 24.429688 -17.078125 25.804688 -16.132812 26.953125 -14.84375 C 28.097656 -13.5625 28.671875 -11.828125 28.671875 -9.640625 C 28.671875 -7.753906 28.144531 -6.035156 27.09375 -4.484375 C 26.039062 -2.929688 24.460938 -1.703125 22.359375 -0.796875 C 20.265625 0.109375 17.71875 0.5625 14.71875 0.5625 Z M 14.71875 0.5625 "/></g></g></g><g fill="#cd430c" fill-opacity="1"><g transform="translate(108.397295, 252.137151)"><g><path d="M 3.90625 -32.90625 L 11.515625 -32.90625 L 11.515625 0 L 3.90625 0 Z M 3.90625 -32.90625 "/></g></g></g><g fill="#cd430c" fill-opacity="1"><g transform="translate(135.842697, 252.137151)"><g><path d="M 34.078125 -32.90625 L 34.078125 0 L 27.828125 0 L 11.421875 -19.96875 L 11.421875 0 L 3.90625 0 L 3.90625 -32.90625 L 10.203125 -32.90625 L 26.5625 -12.921875 L 26.5625 -32.90625 Z M 34.078125 -32.90625 "/></g></g></g><g fill="#cd430c" fill-opacity="1"><g transform="translate(185.844311, 252.137151)"><g><path d="M 10.71875 -26.703125 L 0.1875 -26.703125 L 0.1875 -32.90625 L 28.859375 -32.90625 L 28.859375 -26.703125 L 18.328125 -26.703125 L 18.328125 0 L 10.71875 0 Z M 10.71875 -26.703125 "/></g></g></g><g fill="#cd430c" fill-opacity="1"><g transform="translate(226.917428, 252.137151)"><g><path d="M 19.828125 0.5625 C 16.421875 0.5625 13.34375 -0.171875 10.59375 -1.640625 C 7.851562 -3.117188 5.707031 -5.148438 4.15625 -7.734375 C 2.601562 -10.316406 1.828125 -13.222656 1.828125 -16.453125 C 1.828125 -19.679688 2.601562 -22.585938 4.15625 -25.171875 C 5.707031 -27.753906 7.851562 -29.78125 10.59375 -31.25 C 13.34375 -32.726562 16.421875 -33.46875 19.828125 -33.46875 C 23.242188 -33.46875 26.316406 -32.726562 29.046875 -31.25 C 31.773438 -29.78125 33.921875 -27.753906 35.484375 -25.171875 C 37.046875 -22.585938 37.828125 -19.679688 37.828125 -16.453125 C 37.828125 -13.222656 37.046875 -10.316406 35.484375 -7.734375 C 33.921875 -5.148438 31.773438 -3.117188 29.046875 -1.640625 C 26.316406 -0.171875 23.242188 0.5625 19.828125 0.5625 Z M 19.828125 -5.921875 C 21.773438 -5.921875 23.53125 -6.363281 25.09375 -7.25 C 26.664062 -8.144531 27.894531 -9.390625 28.78125 -10.984375 C 29.675781 -12.585938 30.125 -14.410156 30.125 -16.453125 C 30.125 -18.484375 29.675781 -20.296875 28.78125 -21.890625 C 27.894531 -23.492188 26.664062 -24.742188 25.09375 -25.640625 C 23.53125 -26.535156 21.773438 -26.984375 19.828125 -26.984375 C 17.890625 -26.984375 16.132812 -26.535156 14.5625 -25.640625 C 13 -24.742188 11.769531 -23.492188 10.875 -21.890625 C 9.988281 -20.296875 9.546875 -18.484375 9.546875 -16.453125 C 9.546875 -14.410156 9.988281 -12.585938 10.875 -10.984375 C 11.769531 -9.390625 13 -8.144531 14.5625 -7.25 C 16.132812 -6.363281 17.890625 -5.921875 19.828125 -5.921875 Z M 19.828125 -5.921875 "/></g></g></g><g fill="#cd430c" fill-opacity="1"><g transform="translate(12.03402, 330.116112)"><g><path d="M 35.53125 -32.90625 L 21.296875 0 L 13.765625 0 L -0.421875 -32.90625 L 7.796875 -32.90625 L 17.8125 -9.40625 L 27.96875 -32.90625 Z M 35.53125 -32.90625 "/></g></g></g><g fill="#cd430c" fill-opacity="1"><g transform="translate(59.122129, 330.116112)"><g><path d="M 29.375 -6.109375 L 29.375 0 L 3.90625 0 L 3.90625 -32.90625 L 28.765625 -32.90625 L 28.765625 -26.796875 L 11.46875 -26.796875 L 11.46875 -19.640625 L 26.75 -19.640625 L 26.75 -13.71875 L 11.46875 -13.71875 L 11.46875 -6.109375 Z M 29.375 -6.109375 "/></g></g></g><g fill="#cd430c" fill-opacity="1"><g transform="translate(102.685823, 330.116112)"><g><path d="M 34.078125 -32.90625 L 34.078125 0 L 27.828125 0 L 11.421875 -19.96875 L 11.421875 0 L 3.90625 0 L 3.90625 -32.90625 L 10.203125 -32.90625 L 26.5625 -12.921875 L 26.5625 -32.90625 Z M 34.078125 -32.90625 "/></g></g></g><g fill="#cd430c" fill-opacity="1"><g transform="translate(152.687437, 330.116112)"><g><path d="M 10.71875 -26.703125 L 0.1875 -26.703125 L 0.1875 -32.90625 L 28.859375 -32.90625 L 28.859375 -26.703125 L 18.328125 -26.703125 L 18.328125 0 L 10.71875 0 Z M 10.71875 -26.703125 "/></g></g></g><g fill="#cd430c" fill-opacity="1"><g transform="translate(193.760555, 330.116112)"><g><path d="M 18.515625 0.5625 C 13.816406 0.5625 10.160156 -0.734375 7.546875 -3.328125 C 4.929688 -5.929688 3.625 -9.644531 3.625 -14.46875 L 3.625 -32.90625 L 11.234375 -32.90625 L 11.234375 -14.765625 C 11.234375 -8.867188 13.675781 -5.921875 18.5625 -5.921875 C 20.945312 -5.921875 22.765625 -6.632812 24.015625 -8.0625 C 25.265625 -9.488281 25.890625 -11.722656 25.890625 -14.765625 L 25.890625 -32.90625 L 33.421875 -32.90625 L 33.421875 -14.46875 C 33.421875 -9.644531 32.109375 -5.929688 29.484375 -3.328125 C 26.867188 -0.734375 23.210938 0.5625 18.515625 0.5625 Z M 18.515625 0.5625 "/></g></g></g><g fill="#cd430c" fill-opacity="1"><g transform="translate(242.822334, 330.116112)"><g><path d="M 24.859375 0 L 18.515625 -9.171875 L 11.515625 -9.171875 L 11.515625 0 L 3.90625 0 L 3.90625 -32.90625 L 18.140625 -32.90625 C 21.054688 -32.90625 23.585938 -32.414062 25.734375 -31.4375 C 27.878906 -30.46875 29.53125 -29.085938 30.6875 -27.296875 C 31.851562 -25.515625 32.4375 -23.40625 32.4375 -20.96875 C 32.4375 -18.519531 31.847656 -16.410156 30.671875 -14.640625 C 29.492188 -12.867188 27.820312 -11.515625 25.65625 -10.578125 L 33.046875 0 Z M 24.71875 -20.96875 C 24.71875 -22.8125 24.125 -24.226562 22.9375 -25.21875 C 21.75 -26.207031 20.007812 -26.703125 17.71875 -26.703125 L 11.515625 -26.703125 L 11.515625 -15.234375 L 17.71875 -15.234375 C 20.007812 -15.234375 21.75 -15.734375 22.9375 -16.734375 C 24.125 -17.734375 24.71875 -19.144531 24.71875 -20.96875 Z M 24.71875 -20.96875 "/></g></g></g><g fill="#cd430c" fill-opacity="1"><g transform="translate(289.393513, 330.116112)"><g><path d="M 29.375 -6.109375 L 29.375 0 L 3.90625 0 L 3.90625 -32.90625 L 28.765625 -32.90625 L 28.765625 -26.796875 L 11.46875 -26.796875 L 11.46875 -19.640625 L 26.75 -19.640625 L 26.75 -13.71875 L 11.46875 -13.71875 L 11.46875 -6.109375 Z M 29.375 -6.109375 "/></g></g></g><g fill="#cd430c" fill-opacity="1"><g transform="translate(332.957208, 330.116112)"><g><path d="M 14.71875 0.5625 C 12.113281 0.5625 9.597656 0.210938 7.171875 -0.484375 C 4.742188 -1.191406 2.789062 -2.113281 1.3125 -3.25 L 3.90625 -8.984375 C 5.3125 -7.941406 6.984375 -7.109375 8.921875 -6.484375 C 10.867188 -5.859375 12.816406 -5.546875 14.765625 -5.546875 C 16.921875 -5.546875 18.515625 -5.863281 19.546875 -6.5 C 20.585938 -7.144531 21.109375 -8.003906 21.109375 -9.078125 C 21.109375 -9.859375 20.800781 -10.503906 20.1875 -11.015625 C 19.570312 -11.535156 18.785156 -11.953125 17.828125 -12.265625 C 16.878906 -12.578125 15.585938 -12.921875 13.953125 -13.296875 C 11.453125 -13.890625 9.398438 -14.484375 7.796875 -15.078125 C 6.203125 -15.679688 4.832031 -16.640625 3.6875 -17.953125 C 2.539062 -19.265625 1.96875 -21.019531 1.96875 -23.21875 C 1.96875 -25.125 2.484375 -26.851562 3.515625 -28.40625 C 4.554688 -29.957031 6.117188 -31.1875 8.203125 -32.09375 C 10.285156 -33.007812 12.832031 -33.46875 15.84375 -33.46875 C 17.9375 -33.46875 19.984375 -33.210938 21.984375 -32.703125 C 23.992188 -32.203125 25.753906 -31.484375 27.265625 -30.546875 L 24.90625 -24.765625 C 21.863281 -26.492188 18.828125 -27.359375 15.796875 -27.359375 C 13.660156 -27.359375 12.082031 -27.007812 11.0625 -26.3125 C 10.050781 -25.625 9.546875 -24.71875 9.546875 -23.59375 C 9.546875 -22.46875 10.128906 -21.628906 11.296875 -21.078125 C 12.472656 -20.523438 14.269531 -19.984375 16.6875 -19.453125 C 19.1875 -18.859375 21.234375 -18.265625 22.828125 -17.671875 C 24.429688 -17.078125 25.804688 -16.132812 26.953125 -14.84375 C 28.097656 -13.5625 28.671875 -11.828125 28.671875 -9.640625 C 28.671875 -7.753906 28.144531 -6.035156 27.09375 -4.484375 C 26.039062 -2.929688 24.460938 -1.703125 22.359375 -0.796875 C 20.265625 0.109375 17.71875 0.5625 14.71875 0.5625 Z M 14.71875 0.5625 "/></g></g></g></svg>